<mxfile host="65bd71144e">
    <diagram id="7rbMcumh-cOKgHumeQxC" name="Page-1">
        <mxGraphModel dx="2032" dy="972" grid="0" gridSize="10" guides="1" tooltips="1" connect="1" arrows="1" fold="1" page="1" pageScale="1" pageWidth="850" pageHeight="1100" math="0" shadow="0">
            <root>
                <mxCell id="0"/>
                <mxCell id="1" parent="0"/>
                <mxCell id="91" value="Call Hierarchy" style="swimlane;fontSize=12;fontColor=#DADADA;" parent="1" vertex="1">
                    <mxGeometry x="-832" y="28" width="760" height="496" as="geometry"/>
                </mxCell>
                <mxCell id="125" style="edgeStyle=elbowEdgeStyle;html=1;exitX=1;exitY=0.5;exitDx=0;exitDy=0;entryX=0;entryY=0.5;entryDx=0;entryDy=0;" edge="1" parent="91" source="92" target="94">
                    <mxGeometry relative="1" as="geometry"/>
                </mxCell>
                <mxCell id="127" style="edgeStyle=elbowEdgeStyle;html=1;exitX=1;exitY=0.5;exitDx=0;exitDy=0;entryX=0;entryY=0.5;entryDx=0;entryDy=0;" edge="1" parent="91" source="92" target="101">
                    <mxGeometry relative="1" as="geometry">
                        <Array as="points">
                            <mxPoint x="153.5" y="195"/>
                        </Array>
                    </mxGeometry>
                </mxCell>
                <mxCell id="129" style="edgeStyle=elbowEdgeStyle;html=1;exitX=1;exitY=0.5;exitDx=0;exitDy=0;" edge="1" parent="91" source="92" target="97">
                    <mxGeometry relative="1" as="geometry"/>
                </mxCell>
                <mxCell id="131" style="edgeStyle=elbowEdgeStyle;html=1;exitX=1;exitY=0.5;exitDx=0;exitDy=0;" edge="1" parent="91" source="92" target="105">
                    <mxGeometry relative="1" as="geometry">
                        <Array as="points">
                            <mxPoint x="154.5" y="356"/>
                        </Array>
                    </mxGeometry>
                </mxCell>
                <mxCell id="92" value="main.c" style="rounded=1;whiteSpace=wrap;html=1;fontSize=12;fontColor=#DADADA;" parent="91" vertex="1">
                    <mxGeometry x="49.5" y="255" width="70" height="30" as="geometry"/>
                </mxCell>
                <mxCell id="93" value="\cfg" style="swimlane;whiteSpace=wrap;html=1;fontSize=12;fontColor=#DADADA;" parent="91" vertex="1">
                    <mxGeometry x="202.5" y="191" width="150" height="140" as="geometry">
                        <mxRectangle x="160" y="50" width="60" height="30" as="alternateBounds"/>
                    </mxGeometry>
                </mxCell>
                <mxCell id="94" value="compileCfg.h" style="rounded=1;whiteSpace=wrap;html=1;fontSize=12;fontColor=#DADADA;" parent="93" vertex="1">
                    <mxGeometry x="25" y="40" width="100" height="30" as="geometry"/>
                </mxCell>
                <mxCell id="97" value="&lt;span style=&quot;background-color: rgb(30, 30, 30);&quot;&gt;methodCfg.h&lt;/span&gt;" style="rounded=1;whiteSpace=wrap;html=1;fontSize=12;fontColor=#DADADA;" parent="93" vertex="1">
                    <mxGeometry x="25" y="88" width="100" height="30" as="geometry"/>
                </mxCell>
                <mxCell id="100" value="01_Common_Functions\inc" style="swimlane;whiteSpace=wrap;html=1;fontSize=12;fontColor=#DADADA;" parent="91" vertex="1">
                    <mxGeometry x="191.5" y="64" width="200" height="90" as="geometry">
                        <mxRectangle x="310" y="50" width="230" height="30" as="alternateBounds"/>
                    </mxGeometry>
                </mxCell>
                <mxCell id="101" value="commonXXX.h" style="rounded=1;whiteSpace=wrap;html=1;fontSize=12;fontColor=#DADADA;" parent="100" vertex="1">
                    <mxGeometry x="47.5" y="41" width="105" height="30" as="geometry"/>
                </mxCell>
                <mxCell id="104" value="\inc" style="swimlane;whiteSpace=wrap;html=1;fontSize=12;fontColor=#DADADA;" parent="91" vertex="1">
                    <mxGeometry x="202.5" y="364" width="150" height="90" as="geometry">
                        <mxRectangle x="160" y="50" width="60" height="30" as="alternateBounds"/>
                    </mxGeometry>
                </mxCell>
                <mxCell id="105" value="&lt;span style=&quot;background-color: rgb(30, 30, 30);&quot;&gt;solutionName.h&lt;/span&gt;" style="rounded=1;whiteSpace=wrap;html=1;fontSize=12;fontColor=#DADADA;" parent="104" vertex="1">
                    <mxGeometry x="15" y="40" width="115" height="30" as="geometry"/>
                </mxCell>
                <mxCell id="108" value="\src" style="swimlane;whiteSpace=wrap;html=1;fontSize=12;fontColor=#DADADA;" parent="91" vertex="1">
                    <mxGeometry x="450.5" y="295" width="260" height="90" as="geometry">
                        <mxRectangle x="160" y="50" width="60" height="30" as="alternateBounds"/>
                    </mxGeometry>
                </mxCell>
                <mxCell id="109" value="&lt;span style=&quot;background-color: rgb(30, 30, 30);&quot;&gt;&lt;font style=&quot;font-size: 12px;&quot;&gt;solutionName_methodNameXX.c&lt;/font&gt;&lt;/span&gt;" style="rounded=1;whiteSpace=wrap;html=1;fontSize=12;fontColor=#DADADA;" parent="108" vertex="1">
                    <mxGeometry x="15" y="40" width="225" height="30" as="geometry"/>
                </mxCell>
                <mxCell id="111" value="01_Common_Functions\src" style="swimlane;whiteSpace=wrap;html=1;fontSize=12;fontColor=#DADADA;" parent="91" vertex="1">
                    <mxGeometry x="480.5" y="134" width="200" height="90" as="geometry">
                        <mxRectangle x="540" y="60" width="230" height="30" as="alternateBounds"/>
                    </mxGeometry>
                </mxCell>
                <mxCell id="112" value="commonXXX.c" style="rounded=1;whiteSpace=wrap;html=1;fontSize=12;fontColor=#DADADA;" parent="111" vertex="1">
                    <mxGeometry x="47.5" y="40" width="105" height="30" as="geometry"/>
                </mxCell>
                <mxCell id="126" style="edgeStyle=elbowEdgeStyle;html=1;exitX=1;exitY=0.5;exitDx=0;exitDy=0;entryX=0;entryY=0.5;entryDx=0;entryDy=0;" edge="1" parent="91" source="94" target="112">
                    <mxGeometry relative="1" as="geometry"/>
                </mxCell>
                <mxCell id="128" style="edgeStyle=elbowEdgeStyle;html=1;exitX=1;exitY=0.5;exitDx=0;exitDy=0;entryX=0;entryY=0.5;entryDx=0;entryDy=0;" edge="1" parent="91" source="101" target="112">
                    <mxGeometry relative="1" as="geometry"/>
                </mxCell>
                <mxCell id="130" style="edgeStyle=elbowEdgeStyle;html=1;exitX=1;exitY=0.5;exitDx=0;exitDy=0;" edge="1" parent="91" source="97" target="109">
                    <mxGeometry relative="1" as="geometry"/>
                </mxCell>
                <mxCell id="133" style="edgeStyle=elbowEdgeStyle;html=1;exitX=1;exitY=0.5;exitDx=0;exitDy=0;" edge="1" parent="91" source="105" target="109">
                    <mxGeometry relative="1" as="geometry"/>
                </mxCell>
            </root>
        </mxGraphModel>
    </diagram>
</mxfile>